<svg width="20" height="20" viewBox="0 0 20 20" fill="none" xmlns="http://www.w3.org/2000/svg">
<mask id="mask0_283_866" style="mask-type:alpha" maskUnits="userSpaceOnUse" x="0" y="0" width="20" height="20">
<rect width="20" height="20" fill="#D9D9D9"/>
</mask>
<g mask="url(#mask0_283_866)">
<path d="M5 15L3.27333 16.7267C3.03556 16.9644 2.76389 17.018 2.45833 16.8873C2.15278 16.7567 2 16.5235 2 16.1875V3.5C2 3.0875 2.14688 2.73438 2.44063 2.44063C2.73438 2.14688 3.0875 2 3.5 2H16.5C16.9125 2 17.2656 2.14688 17.5594 2.44063C17.8531 2.73438 18 3.0875 18 3.5V13.5C18 13.9125 17.8531 14.2656 17.5594 14.5594C17.2656 14.8531 16.9125 15 16.5 15H5ZM5.75 12H11.25C11.4625 12 11.6406 11.9285 11.7844 11.7856C11.9281 11.6427 12 11.4656 12 11.2544C12 11.0431 11.9281 10.8646 11.7844 10.7188C11.6406 10.5729 11.4625 10.5 11.25 10.5H5.75C5.5375 10.5 5.35938 10.5715 5.21563 10.7144C5.07188 10.8573 5 11.0344 5 11.2456C5 11.4569 5.07188 11.6354 5.21563 11.7812C5.35938 11.9271 5.5375 12 5.75 12ZM5.75 9.25H14.25C14.4625 9.25 14.6406 9.17854 14.7844 9.03563C14.9281 8.89271 15 8.71563 15 8.50438C15 8.29313 14.9281 8.11458 14.7844 7.96875C14.6406 7.82292 14.4625 7.75 14.25 7.75H5.75C5.5375 7.75 5.35938 7.82146 5.21563 7.96437C5.07188 8.10729 5 8.28437 5 8.49562C5 8.70687 5.07188 8.88542 5.21563 9.03125C5.35938 9.17708 5.5375 9.25 5.75 9.25ZM5.75 6.5H14.25C14.4625 6.5 14.6406 6.42854 14.7844 6.28563C14.9281 6.14271 15 5.96563 15 5.75438C15 5.54313 14.9281 5.36458 14.7844 5.21875C14.6406 5.07292 14.4625 5 14.25 5H5.75C5.5375 5 5.35938 5.07146 5.21563 5.21437C5.07188 5.35729 5 5.53437 5 5.74562C5 5.95687 5.07188 6.13542 5.21563 6.28125C5.35938 6.42708 5.5375 6.5 5.75 6.5Z" fill="#505050"/>
</g>
</svg>
