<svg width="25" height="24" viewBox="0 0 25 24" fill="currentColor" xmlns="http://www.w3.org/2000/svg">
<mask id="mask0_110_4690" style="mask-type:alpha" maskUnits="userSpaceOnUse" x="0" y="0" width="25" height="24">
<rect x="0.5" width="24" height="24" fill="currentColor"/>
</mask>
<g mask="url(#mask0_110_4690)">
<path d="M3.5 21V7H9.5V5L12.5 2L15.5 5V11H21.5V21H3.5ZM5.5 19H7.5V17H5.5V19ZM5.5 15H7.5V13H5.5V15ZM5.5 11H7.5V9H5.5V11ZM11.5 19H13.5V17H11.5V19ZM11.5 15H13.5V13H11.5V15ZM11.5 11H13.5V9H11.5V11ZM11.5 7H13.5V5H11.5V7ZM17.5 19H19.5V17H17.5V19ZM17.5 15H19.5V13H17.5V15Z" fill="currentColor"/>
</g>
</svg>
